<svg height="100" width="740" xmlns="http://www.w3.org/2000/svg">
<!-- [{"opts":{"us_per_line":1000000,"sublines":10,"us_per_pixel":10000,"pixels_per_actor":20,"actor_name_left_padding":5,"top_margin":20,"side_margin":20,"heading":"hello"}},{"actors":{"test1":{"identity":"test1"}},"events":{"test1":[{"fields":{},"kind":{"Span":[6981672,19743]},"value":""}]}}] -->
<defs>
<style>

        rect.span      { opacity: 0.7; }
        g.actor:hover rect { opacity: 1.0; }
        path           { stroke: rgb(64,64,64); stroke-width: 1; }
        path.subline   { stroke: rgb(224,224,224); stroke-width: 0.7; }
        text           { font-family: Verdana, Helvetica; font-size: 14px; }
        text.left      { font-family: Verdana, Helvetica; font-size: 14px; text-anchor: start; }
        text.right     { font-family: Verdana, Helvetica; font-size: 14px; text-anchor: end; }
        text.label     { font-size: 10px; }
</style>
</defs>
<text class="heading" x="20" y="35">
hello
</text>
<g transform="translate(20, 80)">
<text class="label" x="0" y="-5">
0.0
</text>
<path d="M0,0 l0,20 z"/>
<path class="subline" d="M10,0 l0,20 z"/>
<path class="subline" d="M20,0 l0,20 z"/>
<path class="subline" d="M30,0 l0,20 z"/>
<path class="subline" d="M40,0 l0,20 z"/>
<path class="subline" d="M50,0 l0,20 z"/>
<path class="subline" d="M60,0 l0,20 z"/>
<path class="subline" d="M70,0 l0,20 z"/>
<path class="subline" d="M80,0 l0,20 z"/>
<path class="subline" d="M90,0 l0,20 z"/>
<text class="label" x="100" y="-5">
1.0
</text>
<path d="M100,0 l0,20 z"/>
<path class="subline" d="M110,0 l0,20 z"/>
<path class="subline" d="M120,0 l0,20 z"/>
<path class="subline" d="M130,0 l0,20 z"/>
<path class="subline" d="M140,0 l0,20 z"/>
<path class="subline" d="M150,0 l0,20 z"/>
<path class="subline" d="M160,0 l0,20 z"/>
<path class="subline" d="M170,0 l0,20 z"/>
<path class="subline" d="M180,0 l0,20 z"/>
<path class="subline" d="M190,0 l0,20 z"/>
<text class="label" x="200" y="-5">
2.0
</text>
<path d="M200,0 l0,20 z"/>
<path class="subline" d="M210,0 l0,20 z"/>
<path class="subline" d="M220,0 l0,20 z"/>
<path class="subline" d="M230,0 l0,20 z"/>
<path class="subline" d="M240,0 l0,20 z"/>
<path class="subline" d="M250,0 l0,20 z"/>
<path class="subline" d="M260,0 l0,20 z"/>
<path class="subline" d="M270,0 l0,20 z"/>
<path class="subline" d="M280,0 l0,20 z"/>
<path class="subline" d="M290,0 l0,20 z"/>
<text class="label" x="300" y="-5">
3.0
</text>
<path d="M300,0 l0,20 z"/>
<path class="subline" d="M310,0 l0,20 z"/>
<path class="subline" d="M320,0 l0,20 z"/>
<path class="subline" d="M330,0 l0,20 z"/>
<path class="subline" d="M340,0 l0,20 z"/>
<path class="subline" d="M350,0 l0,20 z"/>
<path class="subline" d="M360,0 l0,20 z"/>
<path class="subline" d="M370,0 l0,20 z"/>
<path class="subline" d="M380,0 l0,20 z"/>
<path class="subline" d="M390,0 l0,20 z"/>
<text class="label" x="400" y="-5">
4.0
</text>
<path d="M400,0 l0,20 z"/>
<path class="subline" d="M410,0 l0,20 z"/>
<path class="subline" d="M420,0 l0,20 z"/>
<path class="subline" d="M430,0 l0,20 z"/>
<path class="subline" d="M440,0 l0,20 z"/>
<path class="subline" d="M450,0 l0,20 z"/>
<path class="subline" d="M460,0 l0,20 z"/>
<path class="subline" d="M470,0 l0,20 z"/>
<path class="subline" d="M480,0 l0,20 z"/>
<path class="subline" d="M490,0 l0,20 z"/>
<text class="label" x="500" y="-5">
5.0
</text>
<path d="M500,0 l0,20 z"/>
<path class="subline" d="M510,0 l0,20 z"/>
<path class="subline" d="M520,0 l0,20 z"/>
<path class="subline" d="M530,0 l0,20 z"/>
<path class="subline" d="M540,0 l0,20 z"/>
<path class="subline" d="M550,0 l0,20 z"/>
<path class="subline" d="M560,0 l0,20 z"/>
<path class="subline" d="M570,0 l0,20 z"/>
<path class="subline" d="M580,0 l0,20 z"/>
<path class="subline" d="M590,0 l0,20 z"/>
<text class="label" x="600" y="-5">
6.0
</text>
<path d="M600,0 l0,20 z"/>
<path class="subline" d="M610,0 l0,20 z"/>
<path class="subline" d="M620,0 l0,20 z"/>
<path class="subline" d="M630,0 l0,20 z"/>
<path class="subline" d="M640,0 l0,20 z"/>
<path class="subline" d="M650,0 l0,20 z"/>
<path class="subline" d="M660,0 l0,20 z"/>
<path class="subline" d="M670,0 l0,20 z"/>
<path class="subline" d="M680,0 l0,20 z"/>
<path class="subline" d="M690,0 l0,20 z"/>
<text class="label" x="700" y="-5">
7.0
</text>
<path d="M700,0 l0,20 z"/>
<g class="actor">
<rect class="span" height="20" width="1" x="698" y="0"/>
<text class="left" x="703" y="16">

</text>
</g>
</g>
</svg>